<svg width="66" height="66" viewBox="0 0 66 66" fill="none" xmlns="http://www.w3.org/2000/svg">
<path fill-rule="evenodd" clip-rule="evenodd" d="M33 66C51.2254 66 66 51.2254 66 33C66 14.7746 51.2254 0 33 0C14.7746 0 0 14.7746 0 33C0 51.2254 14.7746 66 33 66Z" fill="#E9EDFB"/>
<path d="M40.4627 37.4349H40.8507C41.4378 37.4349 41.9751 37.6762 42.3632 38.0684C42.7612 38.4606 43 39.0036 43 39.5969C43 40.2003 42.7612 40.7434 42.3632 41.1355C41.9751 41.5277 41.4378 41.7691 40.8507 41.7691H36.1642C36.0348 42.3825 35.7264 42.9356 35.2985 43.368C34.7015 43.9613 33.8955 44.3334 33 44.3334C32.1045 44.3334 31.2886 43.9613 30.7015 43.368C30.2736 42.9356 29.9652 42.3825 29.8358 41.7691H25.1493C24.5522 41.7691 24.0149 41.5277 23.6269 41.1355C23.2388 40.7434 23 40.2003 23 39.5969C23 39.0036 23.2388 38.4606 23.6269 38.0684C24.0149 37.6762 24.5522 37.4349 25.1493 37.4349H25.5274V31.3308C25.5274 29.2491 26.3731 27.3686 27.7264 26.001C28.3234 25.3976 29.01 24.8948 29.7761 24.5227C29.8756 23.7886 30.204 23.135 30.7015 22.6321C31.2886 22.0388 32.1045 21.6667 33 21.6667C33.8955 21.6667 34.7015 22.0388 35.2985 22.6321C35.7861 23.135 36.1244 23.7886 36.2239 24.5227C36.9801 24.8948 37.6766 25.3976 38.2736 26.001C39.6269 27.3686 40.4627 29.2491 40.4627 31.3308V37.4349ZM31.4776 23.9394C31.9751 23.8389 32.4826 23.7785 33 23.7785C33.5174 23.7785 34.0249 23.8389 34.5124 23.9394C34.4527 23.8288 34.3731 23.7383 34.2836 23.6478C33.9552 23.316 33.5075 23.1148 33 23.1148C32.4925 23.1148 32.0448 23.316 31.7164 23.6478C31.6269 23.7383 31.5473 23.8288 31.4776 23.9394ZM34.6716 41.7691H31.3284C31.4179 41.9903 31.5572 42.1814 31.7164 42.3523C32.0448 42.6842 32.4925 42.8853 33 42.8853C33.5075 42.8853 33.9552 42.6842 34.2836 42.3523C34.4428 42.1814 34.5821 41.9903 34.6716 41.7691ZM40.8507 38.883H39.7463C39.3582 38.883 39.0299 38.5511 39.0299 38.1589V31.3308C39.0299 29.6514 38.3532 28.1228 37.2587 27.0166C36.1642 25.9105 34.6617 25.2266 33 25.2266C31.3383 25.2266 29.8358 25.9105 28.7413 27.0166C27.6468 28.1228 26.9602 29.6514 26.9602 31.3308V38.1589C26.9602 38.5511 26.6418 38.883 26.2438 38.883H25.1493C24.9502 38.883 24.7711 38.9634 24.6418 39.0941C24.5124 39.2249 24.4328 39.4059 24.4328 39.5969C24.4328 39.7981 24.5124 39.9791 24.6418 40.1098C24.7711 40.2405 24.9502 40.321 25.1493 40.321H29.7562H36.2438H40.8507C41.0498 40.321 41.2289 40.2405 41.3582 40.1098C41.4876 39.9791 41.5672 39.7981 41.5672 39.5969C41.5672 39.4059 41.4876 39.2249 41.3582 39.0941C41.2289 38.9634 41.0498 38.883 40.8507 38.883Z" fill="#9197A8"/>
<path d="M23 44.7991L42.799 25.0001" stroke="#9197A8" stroke-width="1.3" stroke-linecap="round"/>
</svg>
