<svg width="24" height="24" viewBox="0 0 24 24" fill="none" xmlns="http://www.w3.org/2000/svg">
<rect width="24" height="24" rx="12" fill="#24A148"/>
<circle cx="12.25" cy="11.75" r="6.75" fill="white"/>
<path d="M6.75 3C5.75544 3 4.80161 3.39509 4.09835 4.09835C3.39509 4.80161 3 5.75544 3 6.75V17.25C3 18.2446 3.39509 19.1984 4.09835 19.9016C4.80161 20.6049 5.75544 21 6.75 21H17.25C18.2446 21 19.1984 20.6049 19.9016 19.9016C20.6049 19.1984 21 18.2446 21 17.25V6.75C21 5.75544 20.6049 4.80161 19.9016 4.09835C19.1984 3.39509 18.2446 3 17.25 3H6.75ZM16.281 10.281L11.031 15.531C10.9613 15.6008 10.8786 15.6563 10.7875 15.6941C10.6963 15.7319 10.5987 15.7513 10.5 15.7513C10.4013 15.7513 10.3037 15.7319 10.2125 15.6941C10.1214 15.6563 10.0387 15.6008 9.969 15.531L7.719 13.281C7.64927 13.2113 7.59395 13.1285 7.55621 13.0374C7.51848 12.9463 7.49905 12.8486 7.49905 12.75C7.49905 12.6514 7.51848 12.5537 7.55621 12.4626C7.59395 12.3715 7.64927 12.2887 7.719 12.219C7.85983 12.0782 8.05084 11.9991 8.25 11.9991C8.34862 11.9991 8.44627 12.0185 8.53738 12.0562C8.62848 12.094 8.71127 12.1493 8.781 12.219L10.5 13.9395L15.219 9.219C15.3598 9.07817 15.5508 8.99905 15.75 8.99905C15.9492 8.99905 16.1402 9.07817 16.281 9.219C16.4218 9.35983 16.5009 9.55084 16.5009 9.75C16.5009 9.94916 16.4218 10.1402 16.281 10.281Z" fill="#24A148"/>
</svg>
