<svg width="33" height="32" viewBox="0 0 33 32" fill="none" xmlns="http://www.w3.org/2000/svg">
<path d="M16.5003 4.66602C14.2588 4.66602 12.0676 5.3307 10.2039 6.57603C8.34011 7.82135 6.88749 9.59137 6.0297 11.6623C5.1719 13.7332 4.94746 16.0119 5.38476 18.2104C5.82206 20.4088 6.90146 22.4282 8.48645 24.0132C10.0714 25.5982 12.0909 26.6776 14.2893 27.1149C16.4878 27.5522 18.7665 27.3278 20.8374 26.47C22.9083 25.6122 24.6783 24.1596 25.9237 22.2958C27.169 20.4321 27.8337 18.2409 27.8337 15.9993C27.8337 12.9936 26.6396 10.1109 24.5142 7.98547C22.3888 5.86006 19.5061 4.66602 16.5003 4.66602V4.66602ZM20.0042 19.4088C19.8273 19.5847 19.5879 19.6834 19.3384 19.6834C19.0889 19.6834 18.8495 19.5847 18.6726 19.4088L15.5559 16.2921V10.2382C15.5559 9.98776 15.6554 9.74753 15.8325 9.57041C16.0096 9.3933 16.2498 9.29379 16.5003 9.29379C16.7508 9.29379 16.991 9.3933 17.1682 9.57041C17.3453 9.74753 17.4448 9.98776 17.4448 10.2382V15.5177L20.0042 18.0771C20.1801 18.2541 20.2789 18.4935 20.2789 18.743C20.2789 18.9925 20.1801 19.2318 20.0042 19.4088Z" fill="#F55E53"/>
</svg>
