<svg width="24" height="24" viewBox="0 0 24 24" fill="none" xmlns="http://www.w3.org/2000/svg">
<path d="M15 2.5V4C15 5.414 15 6.121 15.44 6.56C15.878 7 16.585 7 18 7H19.5" stroke="#4B505C" stroke-width="1.2" stroke-linecap="round" stroke-linejoin="round"/>
<path d="M8 11H16M8 14H16M8 17H12.17M4 16V8C4 5.172 4 3.757 4.879 2.879C5.757 2 7.172 2 10 2H14.172C14.58 2 14.785 2 14.969 2.076C15.152 2.152 15.297 2.296 15.586 2.586L19.414 6.414C19.704 6.704 19.848 6.848 19.924 7.032C20 7.215 20 7.42 20 7.828V16C20 18.828 20 20.243 19.121 21.121C18.243 22 16.828 22 14 22H10C7.172 22 5.757 22 4.879 21.121C4 20.243 4 18.828 4 16Z" stroke="#4B505C" stroke-width="1.2" stroke-linecap="round" stroke-linejoin="round"/>
</svg>
