<svg width="24" height="24" viewBox="0 0 24 24" fill="none" xmlns="http://www.w3.org/2000/svg">
<path d="M11.7018 19.9415C11.8325 19.9415 11.9665 19.9121 12.1038 19.8535C12.2411 19.7948 12.3521 19.7231 12.4368 19.6385L20.2328 11.8415C20.4841 11.5901 20.6781 11.3335 20.8148 11.0715C20.9508 10.8081 21.0188 10.5195 21.0188 10.2055C21.0188 9.88747 20.9508 9.5788 20.8148 9.27947C20.6781 8.97947 20.4841 8.70614 20.2328 8.45947L16.4828 4.70947C16.2355 4.45814 15.9811 4.2738 15.7198 4.15647C15.4591 4.03914 15.1698 3.98047 14.8518 3.98047C14.5378 3.98047 14.2461 4.03914 13.9768 4.15647C13.7075 4.2738 13.4538 4.4578 13.2158 4.70847L12.3438 5.58047L14.1938 7.43547C14.3925 7.6308 14.5408 7.8528 14.6388 8.10147C14.7361 8.35014 14.7848 8.60247 14.7848 8.85847C14.7848 9.37914 14.6145 9.8098 14.2738 10.1505C13.9331 10.4911 13.5028 10.6611 12.9828 10.6605C12.7261 10.6605 12.4758 10.6215 12.2318 10.5435C11.9878 10.4655 11.7681 10.3288 11.5728 10.1335L9.65981 8.22747L5.34181 12.5445C5.24115 12.6458 5.16548 12.7608 5.11481 12.8895C5.06415 13.0181 5.03881 13.1481 5.03881 13.2795C5.03881 13.5155 5.11448 13.7098 5.26581 13.8625C5.41648 14.0158 5.60981 14.0925 5.84581 14.0925C5.97648 14.0925 6.11048 14.0631 6.24781 14.0045C6.38515 13.9451 6.49615 13.8731 6.58081 13.7885L9.74981 10.6195L10.4578 11.3275L7.29381 14.4975C7.19248 14.5981 7.11648 14.7128 7.06581 14.8415C7.01581 14.9708 6.99081 15.1008 6.99081 15.2315C6.99081 15.4548 7.06948 15.6451 7.22681 15.8025C7.38415 15.9598 7.57448 16.0388 7.79781 16.0395C7.92848 16.0395 8.06248 16.0098 8.19981 15.9505C8.33715 15.8911 8.44815 15.8195 8.53281 15.7355L11.9328 12.3415L12.6408 13.0485L9.24581 16.4485C9.15715 16.5331 9.08448 16.6441 9.02781 16.7815C8.97048 16.9188 8.94181 17.0528 8.94181 17.1835C8.94181 17.4061 9.02081 17.5961 9.17881 17.7535C9.33615 17.9121 9.52648 17.9915 9.74981 17.9915C9.88048 17.9915 10.0105 17.9661 10.1398 17.9155C10.2691 17.8648 10.3838 17.7888 10.4838 17.6875L13.8838 14.2925L14.5918 15.0005L11.1918 18.4005C11.0911 18.5018 11.0155 18.6235 10.9648 18.7655C10.9141 18.9075 10.8888 19.0371 10.8888 19.1545C10.8888 19.3905 10.9718 19.5808 11.1378 19.7255C11.3038 19.8701 11.4918 19.9425 11.7018 19.9425M11.6958 20.9425C11.1818 20.9425 10.7418 20.7545 10.3758 20.3785C10.0098 20.0018 9.84915 19.5371 9.89381 18.9845C9.32715 18.9911 8.85548 18.8221 8.47881 18.4775C8.10215 18.1321 7.92315 17.6508 7.94181 17.0335C7.32448 17.0401 6.83781 16.8635 6.48181 16.5035C6.12581 16.1435 5.96381 15.6695 5.99581 15.0815C5.43981 15.0881 4.97448 14.9315 4.59981 14.6115C4.22581 14.2928 4.03881 13.8488 4.03881 13.2795C4.03881 13.0228 4.08848 12.7661 4.18781 12.5095C4.28715 12.2521 4.43381 12.0261 4.62781 11.8315L9.65981 6.80547L12.2418 9.38747C12.3265 9.47613 12.4311 9.54914 12.5558 9.60647C12.6805 9.6638 12.8208 9.69214 12.9768 9.69147C13.1908 9.69147 13.3798 9.6168 13.5438 9.46747C13.7078 9.31814 13.7901 9.12347 13.7908 8.88347C13.7908 8.72747 13.7621 8.58747 13.7048 8.46347C13.6475 8.3388 13.5748 8.23414 13.4868 8.14947L10.0468 4.70947C9.79881 4.45814 9.54115 4.2738 9.27381 4.15647C9.00648 4.03914 8.71381 3.98047 8.39581 3.98047C8.08181 3.98047 7.79648 4.03914 7.53981 4.15647C7.28381 4.2738 7.03015 4.45814 6.77881 4.70947L3.73481 7.75947C3.52015 7.9728 3.34681 8.2278 3.21481 8.52447C3.08281 8.82047 3.01281 9.12614 3.00481 9.44147C2.99815 9.66747 3.01748 9.88447 3.06281 10.0925C3.10815 10.3005 3.18148 10.4965 3.28281 10.6805L2.52481 11.4385C2.35681 11.1705 2.22548 10.8618 2.13081 10.5125C2.03615 10.1631 1.99248 9.80647 1.99981 9.44247C2.00781 8.9878 2.09881 8.5528 2.27281 8.13747C2.44681 7.72214 2.69615 7.3518 3.02081 7.02647L6.04581 4.00147C6.39448 3.65614 6.76348 3.39947 7.15281 3.23147C7.54215 3.06414 7.96315 2.98047 8.41581 2.98047C8.86848 2.98047 9.28581 3.06447 9.66781 3.23247C10.0505 3.3998 10.4145 3.65614 10.7598 4.00147L11.6298 4.87247L12.5018 4.00147C12.8505 3.65614 13.2161 3.39947 13.5988 3.23147C13.9815 3.06414 14.3991 2.98047 14.8518 2.98047C15.3045 2.98047 15.7255 3.06447 16.1148 3.23247C16.5035 3.3998 16.8701 3.65614 17.2148 4.00147L20.9408 7.72647C21.2855 8.07114 21.5515 8.45814 21.7388 8.88747C21.9261 9.3168 22.0195 9.7578 22.0188 10.2105C22.0188 10.6638 21.9255 11.0815 21.7388 11.4635C21.5521 11.8455 21.2861 12.2095 20.9408 12.5555L13.1438 20.3455C12.9365 20.5535 12.7105 20.7048 12.4658 20.7995C12.2218 20.8941 11.9651 20.9415 11.6958 20.9415" fill="#4B505C"/>
</svg>
