<svg width="32" height="32" viewBox="0 0 32 32" fill="none" xmlns="http://www.w3.org/2000/svg">
<path d="M26.8938 5.10658C25.3358 3.54733 23.2954 2.56201 21.1055 2.31132C18.9156 2.06064 16.7054 2.55939 14.8353 3.72622C12.9653 4.89306 11.5458 6.65912 10.8084 8.73633C10.071 10.8135 10.0593 13.0793 10.775 15.1641L3.7625 22.1766C3.59967 22.3389 3.47056 22.5317 3.3826 22.7441C3.29464 22.9565 3.24958 23.1842 3.25 23.4141V27.0003C3.25 27.4645 3.43438 27.9096 3.76257 28.2378C4.09075 28.566 4.53587 28.7503 5 28.7503H9C9.19892 28.7503 9.38968 28.6713 9.53033 28.5307C9.67099 28.39 9.75 28.1992 9.75 28.0003V25.7503H12C12.1989 25.7503 12.3897 25.6713 12.5303 25.5307C12.671 25.39 12.75 25.1992 12.75 25.0003V22.7503H15C15.1988 22.7502 15.3895 22.671 15.53 22.5303L16.8363 21.2253C17.8544 21.5747 18.9236 21.7521 20 21.7503H20.0125C21.9397 21.7476 23.8228 21.1739 25.424 20.1016C27.0253 19.0293 28.2729 17.5065 29.0092 15.7256C29.7455 13.9446 29.9376 11.9854 29.561 10.0954C29.1845 8.20543 28.2563 6.46939 26.8938 5.10658ZM28.25 12.2703C28.11 16.6653 24.4163 20.2453 20.015 20.2503C18.9659 20.2525 17.926 20.0544 16.9513 19.6666C16.8131 19.6064 16.66 19.5893 16.512 19.6173C16.3639 19.6454 16.2278 19.7175 16.1213 19.8241L14.6888 21.2503H12C11.8011 21.2503 11.6103 21.3293 11.4697 21.47C11.329 21.6107 11.25 21.8014 11.25 22.0003V24.2503H9C8.80109 24.2503 8.61033 24.3293 8.46967 24.47C8.32902 24.6107 8.25 24.8014 8.25 25.0003V27.2503H5C4.9337 27.2503 4.87011 27.224 4.82323 27.1771C4.77634 27.1302 4.75 27.0666 4.75 27.0003V23.4141C4.74995 23.3481 4.77601 23.2847 4.8225 23.2378L12.1763 15.8841C12.2829 15.7776 12.3549 15.6414 12.383 15.4934C12.4111 15.3453 12.3939 15.1922 12.3338 15.0541C11.945 14.0796 11.7468 13.0395 11.75 11.9903C11.75 7.58908 15.335 3.89533 19.7288 3.75033C20.8579 3.71256 21.9827 3.9071 23.0336 4.32188C24.0844 4.73667 25.0389 5.36287 25.8378 6.16166C26.6367 6.96045 27.263 7.91482 27.678 8.96561C28.0929 10.0164 28.2876 11.1412 28.25 12.2703ZM23.75 9.50033C23.75 9.74756 23.6767 9.98923 23.5393 10.1948C23.402 10.4004 23.2068 10.5606 22.9784 10.6552C22.75 10.7498 22.4986 10.7745 22.2561 10.7263C22.0137 10.6781 21.7909 10.559 21.6161 10.3842C21.4413 10.2094 21.3223 9.98667 21.274 9.74419C21.2258 9.50172 21.2505 9.25038 21.3452 9.02198C21.4398 8.79357 21.6 8.59835 21.8055 8.46099C22.0111 8.32364 22.2528 8.25033 22.5 8.25033C22.8315 8.25033 23.1495 8.38203 23.3839 8.61645C23.6183 8.85087 23.75 9.16881 23.75 9.50033Z" fill="#4B505C"/>
</svg>
